<svg width="326" height="88" viewBox="0 0 326 88" fill="none" xmlns="http://www.w3.org/2000/svg">
<g clip-path="url(#clip0_150_135)">
<path d="M42.2261 13.7573C45.8634 13.7573 48.8121 10.8085 48.8121 7.17111C48.8121 3.53368 45.8634 0.584946 42.2261 0.584946C38.5887 0.584946 35.6398 3.53368 35.6398 7.17111C35.6398 10.8085 38.5887 13.7573 42.2261 13.7573Z" fill="#FF652E"/>
<path d="M54.7368 17.8878C53.2529 15.0387 49.742 13.9361 46.8989 15.4202C44.05 16.9043 42.9474 20.415 44.4313 23.258C49.9626 33.8793 48.3056 44.3158 45.5222 49.543C43.8235 52.7377 37.6126 59.8664 28.2432 51.3372C23.4033 46.9323 22.3544 41.0018 22.5272 36.8534C22.6345 34.2786 23.6299 32.4131 24.8994 32.4131C26.8007 32.4131 29.763 35.8105 30.0789 43.1001C30.1385 44.5544 29.9538 45.9252 29.9895 47.2306C30.0551 50.0974 33.5301 52.8036 36.7186 52.857C38.7452 52.8929 40.587 51.4803 41.2604 49.883C42.0175 48.0887 41.779 44.5899 41.6955 42.5995C41.0518 27.6091 32.5405 20.7905 24.9054 20.7905H24.8934C16.1437 20.8024 11.2383 28.6402 10.9224 36.3766C10.6125 43.8569 14.9516 53.6676 21.8716 60.0333H21.8596C22.4795 60.6235 23.9755 61.9644 25.9067 63.1745C29.5604 65.4691 32.8206 66.1069 33.667 66.2379C33.6732 66.2321 33.7683 66.2617 33.7742 66.2558C39.2162 67.2154 47.0658 66.2024 54.5161 56.4334C60.5243 48.5597 62.9263 33.5873 54.7488 17.8878H54.7368Z" fill="#FF652E"/>
<path d="M20.4828 61.7499C20.0835 61.3803 19.5173 61.0049 18.647 61.0762C15.4344 61.3265 12.3648 58.8055 11.1132 56.3438C9.65885 53.4828 6.35683 52.112 3.4303 53.4232C0.503787 54.7406 -0.801527 58.1797 0.509748 61.1062C3.72833 68.2704 11.0238 72.6691 18.9152 72.6691C20.5484 72.6691 22.2113 72.4784 23.8683 72.085C26.3299 71.501 28.2909 70.5773 30.5915 68.9858C31.0684 68.6521 30.973 67.9187 30.4247 67.7339C28.8809 67.2154 26.7233 66.3513 24.8279 65.0995C23.2186 64.0386 21.4305 62.6319 20.4769 61.7499H20.4828Z" fill="#FF652E"/>
<path d="M103.814 23.4071C103.135 23.4071 102.449 23.9197 102.282 24.5991L94.1883 52.6426L86.0046 24.5991C85.8319 23.9197 85.1523 23.4071 84.4728 23.4071H71.3481C69.8996 23.4071 69.1308 24.5991 69.56 25.964L84.1332 68.2407C84.3893 68.8368 84.902 69.3492 85.5816 69.3492H102.712C103.391 69.3492 103.904 68.8368 104.16 68.2407L118.733 25.964C119.156 24.5991 118.393 23.4071 116.945 23.4071H103.814Z" fill="#FF652E"/>
<path d="M145.238 22.0421C129.98 22.0421 119.924 31.5906 119.924 46.2469C119.924 60.9035 129.98 70.7083 145.238 70.7083C160.497 70.7083 170.551 60.9928 170.551 46.2469C170.551 31.5012 160.497 22.0421 145.238 22.0421ZM145.238 57.0771C139.188 57.0771 135.266 52.8153 135.266 46.3365C135.266 39.8575 139.188 35.6794 145.238 35.6794C151.288 35.6794 155.21 39.8575 155.21 46.3365C155.21 52.8153 151.288 57.0771 145.238 57.0771Z" fill="#FF652E"/>
<path d="M191.008 1.24655H179.075C178.134 1.24655 177.371 2.00975 177.371 2.95121V67.7281C177.371 68.6697 178.134 69.4327 179.075 69.4327H191.008C191.949 69.4327 192.713 68.6697 192.713 67.7281V2.95121C192.713 2.00975 191.949 1.24655 191.008 1.24655Z" fill="#FF652E"/>
<path d="M214.873 1.24655H202.94C201.999 1.24655 201.236 2.00975 201.236 2.95121V67.7281C201.236 68.6697 201.999 69.4327 202.94 69.4327H214.873C215.814 69.4327 216.578 68.6697 216.578 67.7281V2.95121C216.578 2.00975 215.814 1.24655 214.873 1.24655Z" fill="#FF652E"/>
<path d="M248.454 22.0421C232.939 22.0421 223.396 30.9946 223.396 46.42C223.396 61.8451 233.964 70.7976 249.306 70.7976C255.785 70.7976 262.687 69.6891 266.692 67.9842C267.288 67.728 267.628 67.1319 267.628 66.5361V56.6479C267.628 55.6225 266.603 55.116 265.667 55.539C261.322 57.5001 255.099 58.8651 250.152 58.8651C244.013 58.8651 240.693 56.0517 239.328 51.5337H269.333C270.269 51.5337 271.037 50.8545 271.037 49.9126C271.037 32.3535 262.431 22.0421 248.447 22.0421H248.454ZM248.454 34.8271C252.376 34.8271 256.297 37.5567 256.297 41.8185H256.083C254.438 41.0376 251.362 40.5073 247.834 40.5073C244.305 40.5073 241.23 41.0376 239.585 41.8185H239.334C240.61 37.4733 243.852 34.8271 248.454 34.8271Z" fill="#FF652E"/>
<path d="M324.227 23.4071H312.295C311.359 23.4071 310.59 24.1759 310.59 25.1117V43.0939C310.59 49.573 307.52 53.751 301.471 53.751C295.421 53.751 293.203 49.573 293.203 43.0939V25.1117C293.203 24.1759 292.435 23.4071 291.499 23.4071H279.566C278.631 23.4071 277.862 24.1759 277.862 25.1117V43.1835C277.862 57.846 283.828 67.3884 298.061 67.3884C303.175 67.3884 307.437 65.6838 310.59 62.6977V63.3769C310.59 69.3433 305.899 73.7779 297.209 73.7779C292.268 73.7779 287.064 72.4129 282.719 70.4518C281.784 70.0288 280.758 70.5356 280.758 71.5606L280.586 83.1535C280.586 83.7496 280.925 84.3454 281.521 84.6019C285.527 86.3065 291.237 87.4149 297.203 87.4149C315.102 87.4149 325.926 78.1228 325.926 63.3769V25.1117C325.926 24.1759 325.157 23.4071 324.221 23.4071H324.227Z" fill="#FF652E"/>
</g>
<defs>
<clipPath id="clip0_150_135">
<rect width="325.926" height="88" fill="white"/>
</clipPath>
</defs>
</svg>
